<?xml version="1.0" encoding="UTF-8"?>
<svg height="16px" viewBox="0 0 16 16" width="16px" xmlns="http://www.w3.org/2000/svg">
    <g fill="#241f31">
        <path d="m 3.773438 1.019531 c -1.527344 0.007813 -2.757813 1.164063 -2.757813 2.691407 v 5.511718 c 0 1.527344 1.230469 2.757813 2.757813 2.757813 h 4.230468 l -0.003906 -1.980469 l -4.117188 -0.011719 c -0.496093 0 -0.894531 -0.351562 -0.894531 -0.847656 v -5.257813 c 0 -0.496093 0.398438 -0.894531 0.894531 -0.894531 l 4.117188 0.011719 v -2 z m 6.226562 -0.019531 v 2 l 2.113281 -0.011719 c 0.496094 0 0.894531 0.398438 0.894531 0.894531 v 5.257813 c 0 0.496094 -0.398437 0.847656 -0.894531 0.847656 l -2.113281 0.011719 v 2 l 2.234375 -0.019531 c 1.527344 -0.011719 2.757813 -1.230469 2.757813 -2.757813 v -5.511718 c 0 -1.527344 -1.230469 -2.675782 -2.757813 -2.691407 z m -2 12.132812 c -4.667969 0 -5.132812 0.933594 -5.132812 0.933594 c 0 0.933594 0.933593 0.933594 0.933593 0.933594 h 4.199219 z m 2 0.027344 v 1.839844 h 2.488281 c 0.933594 0 0.933594 -0.933594 0.933594 -0.933594 s -0.011719 -0.753906 -3.421875 -0.90625 z m 0 0"/>
        <path d="m 7 0 h 1 v 16 h -1 z m 0 0"/>
    </g>
</svg>
