<?xml version="1.0" encoding="UTF-8"?>
<svg height="128px" viewBox="0 0 128 128" width="128px" xmlns="http://www.w3.org/2000/svg" xmlns:xlink="http://www.w3.org/1999/xlink">
    <linearGradient id="a" gradientUnits="userSpaceOnUse" x1="6.000002" x2="122.00001" y1="81.999992" y2="81.999992">
        <stop offset="0" stop-color="#3d4381"/>
        <stop offset="0.0344828" stop-color="#5c5dac"/>
        <stop offset="0.431034" stop-color="#62a0ea"/>
        <stop offset="0.5" stop-color="#92bef0"/>
        <stop offset="0.568965" stop-color="#62a0ea"/>
        <stop offset="0.965517" stop-color="#5c5dac"/>
        <stop offset="1" stop-color="#3d4380"/>
    </linearGradient>
    <linearGradient id="b" gradientTransform="matrix(0.707107 -0.707107 -0.707107 -0.707107 -99.538427 -270.000008)" gradientUnits="userSpaceOnUse" x1="-81.088318" x2="-150.438919" y1="-316.567841" y2="-385.918427">
        <stop offset="0" stop-color="#613583"/>
        <stop offset="1" stop-color="#99c1f1"/>
    </linearGradient>
    <clipPath id="c">
        <rect height="128" width="128"/>
    </clipPath>
    <clipPath id="d">
        <rect height="128" width="128"/>
    </clipPath>
    <filter id="e" height="100%" width="100%" x="0%" y="0%">
        <feColorMatrix in="SourceGraphic" type="matrix" values="0 0 0 0 1 0 0 0 0 1 0 0 0 0 1 0 0 0 1 0"/>
    </filter>
    <mask id="f">
        <g clip-path="url(#d)" filter="url(#e)">
            <g clip-path="url(#c)">
                <path d="m 69.867188 122.164062 l 50.207031 -50.203124 c 1.660156 -1.664063 2.574219 -3.84375 2.453125 -6.007813 l -0.140625 -6.054687 l -52.519531 -49.957032 c -3.351563 -3.191406 -8.394532 -3.121094 -11.8125 0 l -52.550782 49.996094 l -0.042968 6.148438 c -0.011719 2.125 0.761718 4.246093 2.390624 5.875 l 50.203126 50.203124 c 3.273437 3.273438 8.542968 3.273438 11.8125 0 z m 0 0" fill="url(#a)"/>
                <path d="m 69.796875 115.847656 l 50.097656 -50.097656 c 3.257813 -3.253906 3.257813 -8.53125 0 -11.785156 l -50.097656 -50.101563 c -3.253906 -3.253906 -8.53125 -3.253906 -11.789063 0 l -50.097656 50.101563 c -3.253906 3.253906 -3.253906 8.53125 0 11.785156 l 50.097656 50.097656 c 3.257813 3.257813 8.535157 3.257813 11.789063 0 z m 0 0" fill="url(#b)"/>
                <path d="m 47 38 c -4.933594 0 -9 4.066406 -9 9 v 22 c 0 4.933594 4.066406 9 9 9 h 17 v -6 h -17 c -1.714844 0 -3 -1.285156 -3 -3 v -22 c 0 -1.714844 1.285156 -3 3 -3 h 17 v -6 z m 23 0 v 6 h 11 c 1.714844 0 3 1.285156 3 3 v 22 c 0 1.714844 -1.285156 3 -3 3 h -11 v 6 h 11 c 4.933594 0 9 -4.066406 9 -9 v -22 c 0 -4.933594 -4.066406 -9 -9 -9 z m 0 0" fill="#ffffff"/>
                <path d="m 60 32 h 4 v 64 h -4 z m 0 0" fill="#ffffff"/>
                <path d="m 48 90 c 0 -3.3125 2.6875 -6 6 -6 v 6 z m 0 0" fill="#ffffff"/>
                <path d="m 54 84 h 6 v 6 h -8 z m 0 0" fill="#ffffff"/>
                <path d="m 80 90 c 0 -3.3125 -2.6875 -6 -6 -6 v 6 z m 0 0" fill="#ffffff"/>
                <path d="m 74 84 h -4 v 6 h 6 z m 0 0" fill="#ffffff"/>
            </g>
        </g>
    </mask>
    <mask id="g">
        <g filter="url(#e)">
            <rect fill-opacity="0.8" height="128" width="128"/>
        </g>
    </mask>
    <linearGradient id="h" gradientTransform="matrix(0 0.37 -0.98462 0 295.38501 -30.360001)" gradientUnits="userSpaceOnUse" x1="300" x2="428" y1="235" y2="235">
        <stop offset="0" stop-color="#f9f06b"/>
        <stop offset="1" stop-color="#f5c211"/>
    </linearGradient>
    <clipPath id="i">
        <rect height="128" width="128"/>
    </clipPath>
    <clipPath id="j">
        <rect height="128" width="128"/>
    </clipPath>
    <path d="m 69.867188 122.164062 l 50.207031 -50.203124 c 1.660156 -1.664063 2.574219 -3.84375 2.453125 -6.007813 l -0.140625 -6.054687 l -52.519531 -49.957032 c -3.351563 -3.191406 -8.394532 -3.121094 -11.8125 0 l -52.550782 49.996094 l -0.042968 6.148438 c -0.011719 2.125 0.761718 4.246093 2.390624 5.875 l 50.203126 50.203124 c 3.273437 3.273438 8.542968 3.273438 11.8125 0 z m 0 0" fill="url(#a)"/>
    <path d="m 69.796875 115.847656 l 50.097656 -50.097656 c 3.257813 -3.253906 3.257813 -8.53125 0 -11.785156 l -50.097656 -50.101563 c -3.253906 -3.253906 -8.53125 -3.253906 -11.789063 0 l -50.097656 50.101563 c -3.253906 3.253906 -3.253906 8.53125 0 11.785156 l 50.097656 50.097656 c 3.257813 3.257813 8.535157 3.257813 11.789063 0 z m 0 0" fill="url(#b)"/>
    <g fill="#ffffff">
        <path d="m 47 38 c -4.933594 0 -9 4.066406 -9 9 v 22 c 0 4.933594 4.066406 9 9 9 h 17 v -6 h -17 c -1.714844 0 -3 -1.285156 -3 -3 v -22 c 0 -1.714844 1.285156 -3 3 -3 h 17 v -6 z m 23 0 v 6 h 11 c 1.714844 0 3 1.285156 3 3 v 22 c 0 1.714844 -1.285156 3 -3 3 h -11 v 6 h 11 c 4.933594 0 9 -4.066406 9 -9 v -22 c 0 -4.933594 -4.066406 -9 -9 -9 z m 0 0"/>
        <path d="m 60 32 h 4 v 64 h -4 z m 0 0"/>
        <path d="m 48 90 c 0 -3.3125 2.6875 -6 6 -6 v 6 z m 0 0"/>
        <path d="m 54 84 h 6 v 6 h -8 z m 0 0"/>
        <path d="m 80 90 c 0 -3.3125 -2.6875 -6 -6 -6 v 6 z m 0 0"/>
        <path d="m 74 84 h -4 v 6 h 6 z m 0 0"/>
    </g>
    <g clip-path="url(#j)" mask="url(#f)">
        <g clip-path="url(#i)" mask="url(#g)">
            <path d="m 128 80.640625 v 47.359375 h -128 v -47.359375 z m 0 0" fill="url(#h)"/>
            <path d="m 13.308594 80.640625 l 47.355468 47.359375 h 21.214844 l -47.359375 -47.359375 z m 42.421875 0 l 47.363281 47.359375 h 21.214844 l -47.363282 -47.359375 z m 42.429687 0 l 29.839844 29.839844 v -21.210938 l -8.628906 -8.628906 z m -98.160156 7.90625 v 21.214844 l 18.238281 18.238281 h 21.214844 z m 0 0"/>
        </g>
    </g>
</svg>
