<?xml version="1.0" encoding="UTF-8"?>
<svg height="16px" viewBox="0 0 16 16" width="16px" xmlns="http://www.w3.org/2000/svg">
    <path d="m 7.992188 0.992188 c -3.867188 0.003906 -6.996094 3.140624 -6.992188 7.007812 v 5.988281 c 0 0.554688 0.449219 1.003907 1.003906 1.003907 c 0.550782 -0.003907 1 -0.453126 0.996094 -1.003907 v -0.992187 c 0 -0.554688 0.449219 -1.003906 1.003906 -1.003906 c 0.550782 0.003906 1 0.453124 0.996094 1.003906 v 0.992187 c 0 0.554688 0.449219 1.003907 1.003906 1.003907 c 0.550782 -0.003907 1 -0.453126 0.996094 -1.003907 v -0.992187 c 0 -0.554688 0.449219 -1.003906 1.003906 -1.003906 c 0.550782 0.003906 1 0.453124 0.996094 1.003906 v 0.992187 c 0 0.554688 0.449219 1.003907 1.003906 1.003907 c 0.550782 -0.003907 1 -0.453126 0.996094 -1.003907 v -0.992187 c 0 -0.554688 0.449219 -1.003906 1.003906 -1.003906 c 0.550782 0.003906 1 0.453124 0.996094 1.003906 v 0.992187 c 0 0.554688 0.449219 1.003907 1.003906 1.003907 c 0.550782 -0.003907 1 -0.453126 0.996094 -1.003907 v -5.988281 c 0 -3.871094 -3.136719 -7.007812 -7.007812 -7.007812 z m -1.992188 4 c 0.554688 0 1 0.445312 1 1 v 1 c 0 0.554687 -0.445312 1 -1 1 s -1 -0.445313 -1 -1 v -1 c 0 -0.554688 0.445312 -1 1 -1 z m 4 0 c 0.554688 0 1 0.445312 1 1 v 1 c 0 0.554687 -0.445312 1 -1 1 s -1 -0.445313 -1 -1 v -1 c 0 -0.554688 0.445312 -1 1 -1 z m 0 0" fill="#222222"/>
</svg>
