<?xml version="1.0" encoding="UTF-8"?>
<svg height="16px" viewBox="0 0 16 16" width="16px" xmlns="http://www.w3.org/2000/svg">
    <path d="m 3 1 c -1.644531 0 -3 1.355469 -3 3 v 8 c 0 1.644531 1.355469 3 3 3 h 8.878906 c 0.835938 0 1.582032 -0.402344 2.054688 -0.933594 c 0.476562 -0.535156 0.742187 -1.171875 0.914062 -1.804687 l 0.972656 -2.609375 c 0.390626 -1.449219 -0.09375 -2.652344 -0.820312 -3.167969 c -0.484375 -0.34375 -0.71875 -0.292969 -1 -0.320313 v -1.164062 c 0 -0.855469 -0.558594 -1.589844 -1.09375 -1.828125 c -0.417969 -0.1875 -0.808594 -0.183594 -0.953125 -0.171875 h -3.539063 l -1.707031 -1.707031 c -0.1875 -0.1875 -0.441406 -0.292969 -0.707031 -0.292969 z m 0 2 h 2.585938 l 1.707031 1.707031 c 0.1875 0.1875 0.441406 0.292969 0.707031 0.292969 h 4 v 1 h -5 l 0.039062 0.003906 c -0.914062 -0.042968 -1.746093 0.390625 -2.1875 0.96875 c -0.714843 1.222656 -1.160156 2.277344 -1.800781 3.71875 c -0.171875 0.523438 0.113281 1.089844 0.640625 1.261719 c 0.523438 0.171875 1.089844 -0.117187 1.261719 -0.640625 c 0.484375 -1.011719 0.917969 -1.816406 1.335937 -2.808594 c 0.210938 -0.503906 0.703126 -0.492187 0.898438 -0.503906 h 5.8125 h 0.015625 c 0.984375 0.007812 1.03125 0.707031 0.871094 1.132812 l -0.972657 2.609376 c -0.117187 0.433593 -0.296874 0.796874 -0.472656 0.996093 c -0.175781 0.195313 -0.285156 0.261719 -0.5625 0.261719 h -8.878906 c -0.570312 0 -1 -0.429688 -1 -1 v -8 c 0 -0.570312 0.46875 -0.792969 1 -1 z m 9.105469 1.996094 h 0.003906 v 0.003906 h 0.003906 v 0.003906 h -0.011719 s -0.003906 -0.003906 -0.011718 -0.003906 l -0.003906 -0.003906 z m 0 0" fill="#2e3436"/>
</svg>
