<?xml version="1.0" encoding="UTF-8"?>
<svg height="16px" viewBox="0 0 16 16" width="16px" xmlns="http://www.w3.org/2000/svg">
    <path d="m 7.519531 -0.00390625 c -4.128906 0 -7.4999998 3.37109425 -7.4999998 7.50000025 s 3.3710938 7.5 7.4999998 7.5 c 4.128907 0 7.5 -3.371094 7.5 -7.5 s -3.371093 -7.50000025 -7.5 -7.50000025 z m 0 2.00000025 c 0.253907 0 0.503907 0.023437 0.75 0.054687 c 0.191407 0.261719 0.382813 0.59375 0.550781 1.027344 c 0.105469 0.277344 0.203126 0.585937 0.289063 0.917969 h -3.179687 c 0.085937 -0.332032 0.183593 -0.640625 0.289062 -0.917969 c 0.167969 -0.433594 0.359375 -0.765625 0.546875 -1.027344 c 0.25 -0.03125 0.496094 -0.054687 0.753906 -0.054687 z m -2.089843 0.40625 c -0.046876 0.109375 -0.101563 0.203125 -0.144532 0.316406 c -0.148437 0.386719 -0.269531 0.820312 -0.378906 1.277344 h -1.621094 c 0.574219 -0.691406 1.300782 -1.246094 2.144532 -1.59375 z m 4.175781 0 c 0.847656 0.347656 1.574219 0.902344 2.144531 1.59375 h -1.617188 c -0.109374 -0.457032 -0.230468 -0.890625 -0.378906 -1.277344 c -0.042968 -0.113281 -0.097656 -0.207031 -0.148437 -0.316406 z m -6.984375 2.59375 h 2.085937 c -0.097656 0.628906 -0.148437 1.300781 -0.167969 2 h -2.484374 c 0.066406 -0.714844 0.257812 -1.390625 0.566406 -2 z m 3.097656 0 h 3.597656 c 0.105469 0.617187 0.160156 1.292968 0.183594 2 h -3.960938 c 0.023438 -0.707032 0.078126 -1.382813 0.179688 -2 z m 4.613281 0 h 2.082031 c 0.3125 0.609375 0.503907 1.285156 0.566407 2 h -2.480469 c -0.019531 -0.699219 -0.070312 -1.371094 -0.167969 -2 z m -8.277343 3 h 2.484374 c 0.019532 0.699218 0.070313 1.375 0.167969 2 h -2.085937 c -0.308594 -0.609375 -0.5 -1.285156 -0.566406 -2 z m 3.484374 0 h 3.960938 c -0.023438 0.707031 -0.078125 1.382812 -0.183594 2 h -3.597656 c -0.101562 -0.617188 -0.15625 -1.292969 -0.179688 -2 z m 4.960938 0 h 2.480469 c -0.0625 0.714844 -0.253907 1.390625 -0.566407 2 h -2.082031 c 0.097657 -0.625 0.148438 -1.300782 0.167969 -2 z m -7.214844 3 h 1.621094 c 0.109375 0.457031 0.230469 0.890625 0.378906 1.273437 c 0.042969 0.117188 0.097656 0.210938 0.144532 0.320313 c -0.84375 -0.347656 -1.570313 -0.902344 -2.144532 -1.59375 z m 2.644532 0 h 3.179687 c -0.085937 0.332031 -0.183594 0.640625 -0.289063 0.917968 c -0.167968 0.433594 -0.359374 0.765626 -0.550781 1.027344 c -0.246093 0.03125 -0.496093 0.054688 -0.75 0.054688 c -0.253906 0 -0.503906 -0.023438 -0.75 -0.054688 c -0.191406 -0.261718 -0.382812 -0.59375 -0.550781 -1.027344 c -0.105469 -0.277343 -0.203125 -0.585937 -0.289062 -0.917968 z m 4.203124 0 h 1.617188 c -0.570312 0.691406 -1.296875 1.246094 -2.144531 1.59375 c 0.050781 -0.109375 0.105469 -0.203125 0.148437 -0.320313 c 0.148438 -0.382812 0.269532 -0.816406 0.378906 -1.273437 z m 0 0" fill="#222222"/>
</svg>
