<?xml version="1.0" encoding="UTF-8" standalone="no"?>
<svg
   xmlns:osb="http://www.openswatchbook.org/uri/2009/osb"
   xmlns:dc="http://purl.org/dc/elements/1.1/"
   xmlns:cc="http://creativecommons.org/ns#"
   xmlns:rdf="http://www.w3.org/1999/02/22-rdf-syntax-ns#"
   xmlns:svg="http://www.w3.org/2000/svg"
   xmlns="http://www.w3.org/2000/svg"
   width="16"
   viewBox="0 0 16 16"
   version="1.1"
   id="svg7384"
   height="16">
  <metadata
     id="metadata90">
    <rdf:RDF>
      <cc:Work
         rdf:about="">
        <dc:format>image/svg+xml</dc:format>
        <dc:type
           rdf:resource="http://purl.org/dc/dcmitype/StillImage" />
        <dc:title>Gnome Symbolic Icon Theme</dc:title>
      </cc:Work>
    </rdf:RDF>
  </metadata>
  <title
     id="title9167">Gnome Symbolic Icon Theme</title>
  <defs
     id="defs7386">
    <linearGradient
       osb:paint="solid"
       id="linearGradient7212">
      <stop
         style="stop-color:#000000;stop-opacity:1;"
         offset="0"
         id="stop7214" />
    </linearGradient>
  </defs>
  <g
     transform="translate(-380.00852,79.9875)"
     style="display:inline"
     id="layer1" />
  <g
     transform="translate(-621.00872,446.9875)"
     style="display:inline"
     id="layer9" />
  <g
     transform="translate(-621.00872,446.9875)"
     style="display:inline"
     id="g7628" />
  <g
     transform="translate(-380.00852,-120.0125)"
     id="layer13">
    <path
       d="m 388.00867,121.00914 c -2.76142,0 -5,2.23858 -5,5 0,0.17259 0.0142,0.33191 0.0312,0.5 0.0137,0.16725 0.0358,0.33617 0.0625,0.5 0.57248,3.51444 2.9063,6.00336 4.9063,8.00336 2,-2 4.33372,-4.48892 4.9062,-8.00336 0.0267,-0.16383 0.0488,-0.33275 0.0625,-0.5 0.0171,-0.16809 0.0312,-0.32741 0.0312,-0.5 0,-2.76142 -2.23858,-5 -5,-5 z m 0,3 c 1.10457,0 2,0.89543 2,2 0,1.10457 -0.89543,2 -2,2 -1.10457,0 -2,-0.89543 -2,-2 0,-1.10457 0.89543,-2 2,-2 z"
       id="path5874-9"
       style="color:#000000;clip-rule:nonzero;display:inline;overflow:visible;visibility:visible;opacity:1;isolation:auto;mix-blend-mode:normal;color-interpolation:sRGB;color-interpolation-filters:linearRGB;solid-color:#000000;solid-opacity:1;fill:#2e3436;fill-opacity:1;fill-rule:nonzero;stroke:none;stroke-width:1;stroke-linecap:butt;stroke-linejoin:miter;stroke-miterlimit:4;stroke-dasharray:none;stroke-dashoffset:0;stroke-opacity:1;marker:none;color-rendering:auto;image-rendering:auto;shape-rendering:auto;text-rendering:auto;enable-background:new" />
  </g>
  <g
     transform="translate(-380.00852,79.9875)"
     style="display:inline"
     id="g6387" />
  <g
     transform="translate(-380.00852,79.9875)"
     style="display:inline"
     id="layer10" />
  <g
     transform="translate(-380.00852,79.9875)"
     id="layer12" />
  <g
     transform="translate(-380.00852,79.9875)"
     style="display:inline"
     id="layer11" />
</svg>
