<?xml version="1.0" encoding="UTF-8"?>
<svg height="16px" viewBox="0 0 16 16" width="16px" xmlns="http://www.w3.org/2000/svg">
    <path d="m 3.011719 0.992188 c -1.652344 0 -3.011719 1.359374 -3.011719 3.011718 v 4.976563 c 0 1.652343 1.359375 3.011719 3.011719 3.011719 c 0.550781 0 1 -0.449219 1 -1 c 0 -0.550782 -0.449219 -1 -1 -1 c -0.578125 0 -1.011719 -0.433594 -1.011719 -1.011719 v -4.976563 c 0 -0.578125 0.433594 -1.011718 1.011719 -1.011718 h 7.976562 c 0.578125 0 1.011719 0.433593 1.011719 1.011718 v 0.988282 c 0 0.550781 0.449219 1 1 1 s 1 -0.449219 1 -1 v -0.988282 c 0 -1.652344 -1.359375 -3.011718 -3.011719 -3.011718 z m 6.03125 5 c -0.566407 0 -1.023438 0.425781 -1.042969 0.964843 h -0.988281 c -1.113281 0 -2.011719 0.898438 -2.011719 2.011719 v 4.011719 c 0 1.113281 0.898438 2.011719 2.011719 2.011719 h 5.976562 c 1.113281 0 2.011719 -0.898438 2.011719 -2.011719 v -4.011719 c 0 -1.113281 -0.898438 -2.011719 -2.011719 -2.011719 h -0.992187 c -0.019532 -0.539062 -0.472656 -0.964843 -1.039063 -0.964843 z m 0.957031 3 c 1.105469 0 2 0.894531 2 2 c 0 1.105468 -0.894531 2 -2 2 s -2 -0.894532 -2 -2 c 0 -1.105469 0.894531 -2 2 -2 z m 0 0" fill="#222222"/>
</svg>
