<?xml version="1.0" encoding="UTF-8"?>
<svg height="16px" viewBox="0 0 16 16" width="16px" xmlns="http://www.w3.org/2000/svg">
    <path d="m 3.011719 0.992188 c -1.652344 0 -3.011719 1.359374 -3.011719 3.011718 v 4.976563 c 0 1.652343 1.359375 3.011719 3.011719 3.011719 c 0.550781 0 1 -0.449219 1 -1 c 0 -0.550782 -0.449219 -1 -1 -1 c -0.578125 0 -1.011719 -0.433594 -1.011719 -1.011719 v -4.976563 c 0 -0.578125 0.433594 -1.011718 1.011719 -1.011718 h 7.976562 c 0.578125 0 1.011719 0.433593 1.011719 1.011718 v 1.953125 c 0 0.554688 0.449219 1 1 1 s 1 -0.445312 1 -1 v -1.953125 c 0 -1.652344 -1.359375 -3.011718 -3.011719 -3.011718 z m 3.917969 7.011718 c -1.070313 0 -1.929688 0.863282 -1.929688 1.929688 v 3.140625 c 0 1.070312 0.859375 1.929687 1.929688 1.929687 h 4.140624 c 1.070313 0 1.929688 -0.859375 1.929688 -1.929687 v -0.578125 l 1.847656 1.378906 c 0.214844 0.160156 0.503906 0.183594 0.742188 0.066406 c 0.242187 -0.121094 0.390625 -0.367187 0.390625 -0.636718 v -3.601563 c 0.003906 -0.269531 -0.148438 -0.515625 -0.390625 -0.636719 c -0.238282 -0.121094 -0.527344 -0.09375 -0.742188 0.066406 l -1.847656 1.371094 v -0.570312 c 0 -1.066406 -0.859375 -1.929688 -1.929688 -1.929688 z m 0 0" fill="#222222"/>
</svg>
