<?xml version="1.0" encoding="UTF-8"?>
<svg height="128px" viewBox="0 0 128 128" width="128px" xmlns="http://www.w3.org/2000/svg">
    <path d="m 4 46 v 8 h 22 c 3.3125 0 6 2.6875 6 6 c -0.046875 4.128906 0 8.398438 0 12.636719 v 19.363281 h 8 v -32 c 0 -7.730469 -6.269531 -14 -14 -14 z m 0 0" fill="#e5a50a"/>
    <path d="m 62 92 c 0 14.554688 -11.796875 26.351562 -26.351562 26.351562 c -14.554688 0 -26.355469 -11.796874 -26.355469 -26.351562 s 11.800781 -26.351562 26.355469 -26.351562 c 14.554687 0 26.351562 11.796874 26.351562 26.351562 z m 0 0" fill="#3584e4" fill-opacity="0.385827" stroke="#1a5fb4" stroke-linejoin="round" stroke-width="3.29412"/>
    <path d="m 62.351562 90.351562 c 0 14.554688 -11.796874 26.355469 -26.351562 26.355469 s -26.351562 -11.800781 -26.351562 -26.355469 c 0 -14.554687 11.796874 -26.351562 26.351562 -26.351562 s 26.351562 11.796875 26.351562 26.351562 z m 0 0" fill="none" stroke="#62a0ea" stroke-linejoin="round" stroke-width="3.29412"/>
    <path d="m 124 86 v -8 h -22 c -3.3125 0 -6 -2.6875 -6 -6 c 0.046875 -4.128906 0 -8.398438 0 -12.636719 v -21.363281 h -8 v 34 c 0 7.730469 6.269531 14 14 14 z m 0 0" fill="#e5a50a"/>
    <path d="m 124 84 v -8 h -22 c -3.3125 0 -6 -2.6875 -6 -6 c 0.046875 -4.128906 0 -8.398438 0 -12.636719 v -21.363281 h -8 v 34 c 0 7.730469 6.269531 14 14 14 z m 0 0" fill="#f6d32d"/>
    <path d="m 88 36 v 34 c 0 2.636719 0.730469 5.105469 2 7.214844 v -41.214844 z m 0 0" fill="#f8e45c"/>
    <path d="m 96 36 c 0 2.210938 -1.789062 4 -4 4 s -4 -1.789062 -4 -4 s 1.789062 -4 4 -4 s 4 1.789062 4 4 z m 0 0" fill="#f8e45c"/>
    <path d="m 118.351562 38 c 0 14.554688 -11.796874 26.351562 -26.351562 26.351562 s -26.351562 -11.796874 -26.351562 -26.351562 s 11.796874 -26.351562 26.351562 -26.351562 s 26.351562 11.796874 26.351562 26.351562 z m 0 0" fill="#9141ac" fill-opacity="0.385827" stroke="#613583" stroke-linejoin="round" stroke-width="3.29412"/>
    <path d="m 118.351562 36 c 0 14.554688 -11.796874 26.351562 -26.351562 26.351562 s -26.351562 -11.796874 -26.351562 -26.351562 s 11.796874 -26.351562 26.351562 -26.351562 s 26.351562 11.796874 26.351562 26.351562 z m 0 0" fill="none" stroke="#9141ac" stroke-linejoin="round" stroke-width="3.29412"/>
    <path d="m 40 92 c 0 2.210938 -1.789062 4 -4 4 s -4 -1.789062 -4 -4 s 1.789062 -4 4 -4 s 4 1.789062 4 4 z m 0 0" fill="#f6d32d"/>
    <path d="m 34 88.546875 c -1.234375 0.710937 -1.996094 2.027344 -2 3.453125 c 0.003906 1.425781 0.765625 2.742188 2 3.453125 z m 0 0" fill="#f8e45c"/>
    <path d="m 4 44 v 8 h 22 c 3.3125 0 6 2.6875 6 6 c -0.046875 4.128906 0 8.398438 0 12.636719 v 21.363281 h 8 v -34 c 0 -7.730469 -6.269531 -14 -14 -14 z m 0 0" fill="#f6d32d"/>
    <g fill="#f8e45c">
        <path d="m 34 92 v -28 c 0 -1.769531 -0.78125 -3.535156 -2 -4.957031 v 32.957031 z m 0 0"/>
        <path d="m 124 78 v -2 h -20 v 0.707031 c 1.222656 0.800781 2.609375 1.292969 4 1.292969 z m 0 0"/>
        <path d="m 4 44 v 2 h 29.214844 c -2.109375 -1.269531 -4.578125 -2 -7.214844 -2 z m 0 0"/>
    </g>
</svg>
