<?xml version="1.0" encoding="UTF-8"?>
<svg height="16px" viewBox="0 0 16 16" width="16px" xmlns="http://www.w3.org/2000/svg">
    <g fill="#c0bfbc">
        <path d="m 5 7 c -2.203125 0 -4 1.796875 -4 4 s 1.796875 4 4 4 s 4 -1.796875 4 -4 s -1.796875 -4 -4 -4 z m 0 1.054688 c 1.632812 0 2.945312 1.3125 2.945312 2.945312 s -1.3125 2.945312 -2.945312 2.945312 s -2.945312 -1.3125 -2.945312 -2.945312 s 1.3125 -2.945312 2.945312 -2.945312 z m 0 0"/>
        <path d="m 15 11 v -1 h -2.25 c -0.414062 0 -0.75 -0.335938 -0.75 -0.75 c 0.007812 -0.515625 0 -1.050781 0 -1.578125 v -2.671875 h -1 v 4.25 c 0 0.964844 0.785156 1.75 1.75 1.75 z m 0 0"/>
        <path d="m 11 1 c -2.203125 0 -4 1.796875 -4 4 s 1.796875 4 4 4 s 4 -1.796875 4 -4 s -1.796875 -4 -4 -4 z m 0 1.054688 c 1.632812 0 2.945312 1.3125 2.945312 2.945312 s -1.3125 2.945312 -2.945312 2.945312 s -2.945312 -1.3125 -2.945312 -2.945312 s 1.3125 -2.945312 2.945312 -2.945312 z m 0 0"/>
        <path d="m 1 5 v 1 h 2.25 c 0.414062 0 0.75 0.335938 0.75 0.75 c -0.007812 0.515625 0 1.050781 0 1.578125 v 2.671875 h 1 v -4.25 c 0 -0.964844 -0.785156 -1.75 -1.75 -1.75 z m 0 0"/>
    </g>
</svg>
