<?xml version="1.0" encoding="UTF-8"?>
<svg height="128px" viewBox="0 0 128 128" width="128px" xmlns="http://www.w3.org/2000/svg" xmlns:xlink="http://www.w3.org/1999/xlink">
    <linearGradient id="a" gradientUnits="userSpaceOnUse" x1="7.608172" x2="122.708696" y1="84.291465" y2="84.084037">
        <stop offset="0" stop-color="#c061cb"/>
        <stop offset="0.0432853" stop-color="#65357d"/>
        <stop offset="0.419696" stop-color="#8f3c46"/>
        <stop offset="0.461191" stop-color="#c061cb"/>
        <stop offset="0.506389" stop-color="#e66100"/>
        <stop offset="0.558932" stop-color="#963d3c"/>
        <stop offset="0.952831" stop-color="#c14505"/>
        <stop offset="1" stop-color="#ff7800"/>
    </linearGradient>
    <linearGradient id="b" gradientTransform="matrix(0.707107 -0.707107 -0.707107 -0.707107 -98.999998 -270.000008)" gradientUnits="userSpaceOnUse" x1="-81.088318" x2="-150.438919" y1="-316.567841" y2="-385.918427">
        <stop offset="0" stop-color="#613583"/>
        <stop offset="1" stop-color="#f6d32d"/>
    </linearGradient>
    <clipPath id="c">
        <rect height="128" width="128"/>
    </clipPath>
    <clipPath id="d">
        <rect height="128" width="128"/>
    </clipPath>
    <filter id="e" height="100%" width="100%" x="0%" y="0%">
        <feColorMatrix in="SourceGraphic" type="matrix" values="0 0 0 0 1 0 0 0 0 1 0 0 0 0 1 0 0 0 1 0"/>
    </filter>
    <mask id="f">
        <g clip-path="url(#d)" filter="url(#e)">
            <g clip-path="url(#c)">
                <path d="m 70.40625 122.164062 l 50.207031 -50.203124 c 1.660157 -1.664063 2.574219 -3.84375 2.453125 -6.007813 l -0.140625 -6.054687 l -52.519531 -49.957032 c -3.351562 -3.191406 -8.394531 -3.121094 -11.8125 0 l -52.550781 49.996094 l -0.042969 6.148438 c -0.015625 2.125 0.761719 4.246093 2.390625 5.875 l 50.203125 50.203124 c 3.273438 3.273438 8.542969 3.273438 11.8125 0 z m 0 0" fill="url(#a)"/>
                <path d="m 70.335938 115.847656 l 50.097656 -50.097656 c 3.253906 -3.253906 3.253906 -8.53125 0 -11.785156 l -50.097656 -50.101563 c -3.253907 -3.253906 -8.535157 -3.253906 -11.789063 0 l -50.097656 50.101563 c -3.253907 3.253906 -3.253907 8.53125 0 11.785156 l 50.097656 50.097656 c 3.253906 3.257813 8.535156 3.257813 11.789063 0 z m 0 0" fill="url(#b)"/>
                <path d="m 48.59375 33.679688 c -5.730469 0.03125 -10.34375 4.367187 -10.34375 10.09375 v 20.667968 c 0 5.726563 4.613281 10.34375 10.34375 10.34375 h 15.863281 l -0.015625 -7.429687 l -15.4375 -0.042969 c -1.863281 0 -3.355468 -1.316406 -3.355468 -3.179688 v -19.714843 c 0 -1.859375 1.492187 -3.355469 3.355468 -3.355469 l 15.4375 0.042969 v -7.5 z m 23.347656 -0.074219 v 7.5 l 7.925782 -0.042969 c 1.859374 0 3.355468 1.496094 3.355468 3.355469 v 19.714843 c 0 1.863282 -1.496094 3.179688 -3.355468 3.179688 l -7.925782 0.042969 v 7.5 l 8.378906 -0.070313 c 5.726563 -0.046875 10.34375 -4.617187 10.34375 -10.34375 v -20.667968 c 0 -5.726563 -4.617187 -10.035157 -10.34375 -10.09375 z m -7.5 45.5 c -17.503906 0 -19.246094 3.5 -19.246094 3.5 c 0 3.5 3.5 3.5 3.5 3.5 h 15.746094 z m 7.5 0.101562 v 6.898438 h 9.332032 c 3.5 0 3.5 -3.5 3.5 -3.5 s -0.042969 -2.828125 -12.832032 -3.398438 z m 0 0" fill="#ffffff"/>
                <path d="m 60.691406 29.855469 h 3.75 v 60 h -3.75 z m 0 0" fill="#ffffff"/>
            </g>
        </g>
    </mask>
    <mask id="g">
        <g filter="url(#e)">
            <rect fill-opacity="0.8" height="128" width="128"/>
        </g>
    </mask>
    <linearGradient id="h" gradientTransform="matrix(0 0.37 -0.98462 0 295.38501 -30.360001)" gradientUnits="userSpaceOnUse" x1="300" x2="428" y1="235" y2="235">
        <stop offset="0" stop-color="#f9f06b"/>
        <stop offset="1" stop-color="#f5c211"/>
    </linearGradient>
    <clipPath id="i">
        <rect height="128" width="128"/>
    </clipPath>
    <clipPath id="j">
        <rect height="128" width="128"/>
    </clipPath>
    <path d="m 70.40625 122.164062 l 50.207031 -50.203124 c 1.660157 -1.664063 2.574219 -3.84375 2.453125 -6.007813 l -0.140625 -6.054687 l -52.519531 -49.957032 c -3.351562 -3.191406 -8.394531 -3.121094 -11.8125 0 l -52.550781 49.996094 l -0.042969 6.148438 c -0.015625 2.125 0.761719 4.246093 2.390625 5.875 l 50.203125 50.203124 c 3.273438 3.273438 8.542969 3.273438 11.8125 0 z m 0 0" fill="url(#a)"/>
    <path d="m 70.335938 115.847656 l 50.097656 -50.097656 c 3.253906 -3.253906 3.253906 -8.53125 0 -11.785156 l -50.097656 -50.101563 c -3.253907 -3.253906 -8.535157 -3.253906 -11.789063 0 l -50.097656 50.101563 c -3.253907 3.253906 -3.253907 8.53125 0 11.785156 l 50.097656 50.097656 c 3.253906 3.257813 8.535156 3.257813 11.789063 0 z m 0 0" fill="url(#b)"/>
    <path d="m 48.59375 33.679688 c -5.730469 0.03125 -10.34375 4.367187 -10.34375 10.09375 v 20.667968 c 0 5.726563 4.613281 10.34375 10.34375 10.34375 h 15.863281 l -0.015625 -7.429687 l -15.4375 -0.042969 c -1.863281 0 -3.355468 -1.316406 -3.355468 -3.179688 v -19.714843 c 0 -1.859375 1.492187 -3.355469 3.355468 -3.355469 l 15.4375 0.042969 v -7.5 z m 23.347656 -0.074219 v 7.5 l 7.925782 -0.042969 c 1.859374 0 3.355468 1.496094 3.355468 3.355469 v 19.714843 c 0 1.863282 -1.496094 3.179688 -3.355468 3.179688 l -7.925782 0.042969 v 7.5 l 8.378906 -0.070313 c 5.726563 -0.046875 10.34375 -4.617187 10.34375 -10.34375 v -20.667968 c 0 -5.726563 -4.617187 -10.035157 -10.34375 -10.09375 z m -7.5 45.5 c -17.503906 0 -19.246094 3.5 -19.246094 3.5 c 0 3.5 3.5 3.5 3.5 3.5 h 15.746094 z m 7.5 0.101562 v 6.898438 h 9.332032 c 3.5 0 3.5 -3.5 3.5 -3.5 s -0.042969 -2.828125 -12.832032 -3.398438 z m 0 0" fill="#ffffff"/>
    <path d="m 60.691406 29.855469 h 3.75 v 60 h -3.75 z m 0 0" fill="#ffffff"/>
    <g clip-path="url(#j)" mask="url(#f)">
        <g clip-path="url(#i)" mask="url(#g)">
            <path d="m 128 80.640625 v 47.359375 h -128 v -47.359375 z m 0 0" fill="url(#h)"/>
            <path d="m 13.308594 80.640625 l 47.355468 47.359375 h 21.214844 l -47.359375 -47.359375 z m 42.421875 0 l 47.363281 47.359375 h 21.214844 l -47.363282 -47.359375 z m 42.429687 0 l 29.839844 29.839844 v -21.210938 l -8.628906 -8.628906 z m -98.160156 7.90625 v 21.214844 l 18.238281 18.238281 h 21.214844 z m 0 0"/>
        </g>
    </g>
</svg>
