<?xml version="1.0" encoding="UTF-8"?>
<svg height="128px" viewBox="0 0 128 128" width="128px" xmlns="http://www.w3.org/2000/svg" xmlns:xlink="http://www.w3.org/1999/xlink">
    <clipPath id="a">
        <rect height="128" width="128"/>
    </clipPath>
    <clipPath id="b">
        <rect height="128" width="128"/>
    </clipPath>
    <filter id="c" height="100%" width="100%" x="0%" y="0%">
        <feColorMatrix in="SourceGraphic" type="matrix" values="0 0 0 0 1 0 0 0 0 1 0 0 0 0 1 0 0 0 1 0"/>
    </filter>
    <mask id="d">
        <g clip-path="url(#b)" filter="url(#c)">
            <g clip-path="url(#a)">
                <path d="m 4 46 v 8 h 22 c 3.3125 0 6 2.6875 6 6 c -0.046875 4.128906 0 8.398438 0 12.636719 v 19.363281 h 8 v -32 c 0 -7.730469 -6.269531 -14 -14 -14 z m 0 0" fill="#e5a50a"/>
                <path d="m 580 -48 c 0 14.554688 -11.796875 26.351562 -26.351562 26.351562 c -14.554688 0 -26.355469 -11.796874 -26.355469 -26.351562 s 11.800781 -26.351562 26.355469 -26.351562 c 14.554687 0 26.351562 11.796874 26.351562 26.351562 z m 0 0" fill="#3584e4" fill-opacity="0.385827" stroke="#1a5fb4" stroke-linejoin="round" stroke-width="3.29412" transform="matrix(1 0 0 1 -518 140)"/>
                <path d="m 580.351562 -49.648438 c 0 14.554688 -11.796874 26.355469 -26.351562 26.355469 s -26.351562 -11.800781 -26.351562 -26.355469 c 0 -14.554687 11.796874 -26.351562 26.351562 -26.351562 s 26.351562 11.796875 26.351562 26.351562 z m 0 0" fill="none" stroke="#62a0ea" stroke-linejoin="round" stroke-width="3.29412" transform="matrix(1 0 0 1 -518 140)"/>
                <path d="m 124 86 v -8 h -22 c -3.3125 0 -6 -2.6875 -6 -6 c 0.046875 -4.128906 0 -8.398438 0 -12.636719 v -21.363281 h -8 v 34 c 0 7.730469 6.269531 14 14 14 z m 0 0" fill="#e5a50a"/>
                <path d="m 124 84 v -8 h -22 c -3.3125 0 -6 -2.6875 -6 -6 c 0.046875 -4.128906 0 -8.398438 0 -12.636719 v -21.363281 h -8 v 34 c 0 7.730469 6.269531 14 14 14 z m 0 0" fill="#f6d32d"/>
                <path d="m 88 36 v 34 c 0 2.636719 0.730469 5.105469 2 7.214844 v -41.214844 z m 0 0" fill="#f8e45c"/>
                <path d="m 96 36 c 0 2.210938 -1.789062 4 -4 4 s -4 -1.789062 -4 -4 s 1.789062 -4 4 -4 s 4 1.789062 4 4 z m 0 0" fill="#f8e45c"/>
                <path d="m 636.351562 -102 c 0 14.554688 -11.796874 26.351562 -26.351562 26.351562 s -26.351562 -11.796874 -26.351562 -26.351562 s 11.796874 -26.351562 26.351562 -26.351562 s 26.351562 11.796874 26.351562 26.351562 z m 0 0" fill="#9141ac" fill-opacity="0.385827" stroke="#613583" stroke-linejoin="round" stroke-width="3.29412" transform="matrix(1 0 0 1 -518 140)"/>
                <path d="m 636.351562 -104 c 0 14.554688 -11.796874 26.351562 -26.351562 26.351562 s -26.351562 -11.796874 -26.351562 -26.351562 s 11.796874 -26.351562 26.351562 -26.351562 s 26.351562 11.796874 26.351562 26.351562 z m 0 0" fill="none" stroke="#9141ac" stroke-linejoin="round" stroke-width="3.29412" transform="matrix(1 0 0 1 -518 140)"/>
                <path d="m 40 92 c 0 2.210938 -1.789062 4 -4 4 s -4 -1.789062 -4 -4 s 1.789062 -4 4 -4 s 4 1.789062 4 4 z m 0 0" fill="#f6d32d"/>
                <path d="m 34 88.546875 c -1.234375 0.710937 -1.996094 2.027344 -2 3.453125 c 0.003906 1.425781 0.765625 2.742188 2 3.453125 z m 0 0" fill="#f8e45c"/>
                <path d="m 4 44 v 8 h 22 c 3.3125 0 6 2.6875 6 6 c -0.046875 4.128906 0 8.398438 0 12.636719 v 21.363281 h 8 v -34 c 0 -7.730469 -6.269531 -14 -14 -14 z m 0 0" fill="#f6d32d"/>
                <path d="m 34 92 v -28 c 0 -1.769531 -0.78125 -3.535156 -2 -4.957031 v 32.957031 z m 0 0" fill="#f8e45c"/>
                <path d="m 124 78 v -2 h -20 v 0.707031 c 1.222656 0.800781 2.609375 1.292969 4 1.292969 z m 0 0" fill="#f8e45c"/>
                <path d="m 4 44 v 2 h 29.214844 c -2.109375 -1.269531 -4.578125 -2 -7.214844 -2 z m 0 0" fill="#f8e45c"/>
            </g>
        </g>
    </mask>
    <mask id="e">
        <g filter="url(#c)">
            <rect fill-opacity="0.8" height="128" width="128"/>
        </g>
    </mask>
    <linearGradient id="f" gradientTransform="matrix(0 0.37 -0.98462 0 295.38501 -30.360001)" gradientUnits="userSpaceOnUse" x1="300" x2="428" y1="235" y2="235">
        <stop offset="0" stop-color="#f9f06b"/>
        <stop offset="1" stop-color="#f5c211"/>
    </linearGradient>
    <clipPath id="g">
        <rect height="128" width="128"/>
    </clipPath>
    <clipPath id="h">
        <rect height="128" width="128"/>
    </clipPath>
    <path d="m 4 46 v 8 h 22 c 3.3125 0 6 2.6875 6 6 c -0.046875 4.128906 0 8.398438 0 12.636719 v 19.363281 h 8 v -32 c 0 -7.730469 -6.269531 -14 -14 -14 z m 0 0" fill="#e5a50a"/>
    <path d="m 62 92 c 0 14.554688 -11.796875 26.351562 -26.351562 26.351562 c -14.554688 0 -26.355469 -11.796874 -26.355469 -26.351562 s 11.800781 -26.351562 26.355469 -26.351562 c 14.554687 0 26.351562 11.796874 26.351562 26.351562 z m 0 0" fill="#3584e4" fill-opacity="0.385827" stroke="#1a5fb4" stroke-linejoin="round" stroke-width="3.29412"/>
    <path d="m 62.351562 90.351562 c 0 14.554688 -11.796874 26.355469 -26.351562 26.355469 s -26.351562 -11.800781 -26.351562 -26.355469 c 0 -14.554687 11.796874 -26.351562 26.351562 -26.351562 s 26.351562 11.796875 26.351562 26.351562 z m 0 0" fill="none" stroke="#62a0ea" stroke-linejoin="round" stroke-width="3.29412"/>
    <path d="m 124 86 v -8 h -22 c -3.3125 0 -6 -2.6875 -6 -6 c 0.046875 -4.128906 0 -8.398438 0 -12.636719 v -21.363281 h -8 v 34 c 0 7.730469 6.269531 14 14 14 z m 0 0" fill="#e5a50a"/>
    <path d="m 124 84 v -8 h -22 c -3.3125 0 -6 -2.6875 -6 -6 c 0.046875 -4.128906 0 -8.398438 0 -12.636719 v -21.363281 h -8 v 34 c 0 7.730469 6.269531 14 14 14 z m 0 0" fill="#f6d32d"/>
    <path d="m 88 36 v 34 c 0 2.636719 0.730469 5.105469 2 7.214844 v -41.214844 z m 0 0" fill="#f8e45c"/>
    <path d="m 96 36 c 0 2.210938 -1.789062 4 -4 4 s -4 -1.789062 -4 -4 s 1.789062 -4 4 -4 s 4 1.789062 4 4 z m 0 0" fill="#f8e45c"/>
    <path d="m 118.351562 38 c 0 14.554688 -11.796874 26.351562 -26.351562 26.351562 s -26.351562 -11.796874 -26.351562 -26.351562 s 11.796874 -26.351562 26.351562 -26.351562 s 26.351562 11.796874 26.351562 26.351562 z m 0 0" fill="#9141ac" fill-opacity="0.385827" stroke="#613583" stroke-linejoin="round" stroke-width="3.29412"/>
    <path d="m 118.351562 36 c 0 14.554688 -11.796874 26.351562 -26.351562 26.351562 s -26.351562 -11.796874 -26.351562 -26.351562 s 11.796874 -26.351562 26.351562 -26.351562 s 26.351562 11.796874 26.351562 26.351562 z m 0 0" fill="none" stroke="#9141ac" stroke-linejoin="round" stroke-width="3.29412"/>
    <path d="m 40 92 c 0 2.210938 -1.789062 4 -4 4 s -4 -1.789062 -4 -4 s 1.789062 -4 4 -4 s 4 1.789062 4 4 z m 0 0" fill="#f6d32d"/>
    <path d="m 34 88.546875 c -1.234375 0.710937 -1.996094 2.027344 -2 3.453125 c 0.003906 1.425781 0.765625 2.742188 2 3.453125 z m 0 0" fill="#f8e45c"/>
    <path d="m 4 44 v 8 h 22 c 3.3125 0 6 2.6875 6 6 c -0.046875 4.128906 0 8.398438 0 12.636719 v 21.363281 h 8 v -34 c 0 -7.730469 -6.269531 -14 -14 -14 z m 0 0" fill="#f6d32d"/>
    <g fill="#f8e45c">
        <path d="m 34 92 v -28 c 0 -1.769531 -0.78125 -3.535156 -2 -4.957031 v 32.957031 z m 0 0"/>
        <path d="m 124 78 v -2 h -20 v 0.707031 c 1.222656 0.800781 2.609375 1.292969 4 1.292969 z m 0 0"/>
        <path d="m 4 44 v 2 h 29.214844 c -2.109375 -1.269531 -4.578125 -2 -7.214844 -2 z m 0 0"/>
    </g>
    <g clip-path="url(#h)" mask="url(#d)">
        <g clip-path="url(#g)" mask="url(#e)">
            <path d="m 128 80.640625 v 47.359375 h -128 v -47.359375 z m 0 0" fill="url(#f)"/>
            <path d="m 13.308594 80.640625 l 47.355468 47.359375 h 21.214844 l -47.359375 -47.359375 z m 42.421875 0 l 47.363281 47.359375 h 21.214844 l -47.363282 -47.359375 z m 42.429687 0 l 29.839844 29.839844 v -21.210938 l -8.628906 -8.628906 z m -98.160156 7.90625 v 21.214844 l 18.238281 18.238281 h 21.214844 z m 0 0"/>
        </g>
    </g>
</svg>
